# xmcd
#
# Track frame offsets:
#   150
#   12443
#   25635
#   37353
#   50685
#   63415
#   75888
#   88240
#   100110
#   111958
#   123035
#   136153
#   150015
#   161560
#   174205
#   186685
#
# Disc length: 2632 seconds
#
# Revision: 1
# Processed by: cddbd v1.5PL3 Copyright (c) Steve Scherf et al.
# Submitted via: Media_Universe 3.0
#
DISCID=c30a4610
DTITLE=HANK WILLIAMS - HANK WILLIAMS 16 GREATEST HITS
DYEAR=1900
DGENRE=Country
TTITLE0=YOUR CHEATIN HEART
TTITLE1=JAMBALAYA (ON THE BAYOU)
TTITLE2=MY SON CALLS ANOTHER MAN DADDY
TTITLE3=HELP ME UNDERSTAND
TTITLE4=MAY YOU NEVER BE ALONE
TTITLE5=I SAW THE LIGHT
TTITLE6=MOVE IT ON OVER
TTITLE7=SETTIN THE WOODS ON FIRE
TTITLE8=MANSION ON THE HILL
TTITLE9=LONESOME WHISTLE
TTITLE10=WEDDING BELLS
TTITLE11=RABLIN' MAN
TTITLE12=WINDOW SHOPPING
TTITLE13=THERE'LL BE NO TEARDROPS TONIGHT
TTITLE14=THEY'LL NEVER TAKE HER LOVE FROM ME
TTITLE15=WHY DON'T YOU LOVE ME
EXTD=
EXTT0=
EXTT1=
EXTT2=
EXTT3=
EXTT4=
EXTT5=
EXTT6=
EXTT7=
EXTT8=
EXTT9=
EXTT10=
EXTT11=
EXTT12=
EXTT13=
EXTT14=
EXTT15=
PLAYORDER=
